<svg width="18" height="19" viewBox="0 0 18 19" fill="none" xmlns="http://www.w3.org/2000/svg">
<path d="M7.96166 3.54681C8.00943 3.49789 8.06651 3.45904 8.12955 3.43256C8.19258 3.40607 8.26027 3.39247 8.32865 3.39258C8.39702 3.39268 8.46467 3.40648 8.52762 3.43317C8.59057 3.45985 8.64754 3.49887 8.69516 3.54793L14.5249 9.52955C14.6273 9.63459 14.6846 9.77548 14.6846 9.92217C14.6846 10.0689 14.6273 10.2097 14.5249 10.3148L8.69516 16.2964C8.64746 16.3454 8.59044 16.3843 8.52745 16.4109C8.46446 16.4375 8.39678 16.4512 8.32841 16.4512C8.26004 16.4512 8.19236 16.4375 8.12937 16.4109C8.06638 16.3843 8.00935 16.3454 7.96166 16.2964C7.86353 16.196 7.8086 16.0611 7.8086 15.9207C7.8086 15.7802 7.86353 15.6454 7.96166 15.5449L13.4438 9.92217L7.96166 4.29718C7.86387 4.19677 7.80915 4.06215 7.80915 3.92199C7.80915 3.78183 7.86387 3.64721 7.96166 3.54681ZM3.46165 3.54681C3.50942 3.49789 3.56651 3.45904 3.62954 3.43256C3.69257 3.40607 3.76027 3.39247 3.82864 3.39258C3.89701 3.39268 3.96467 3.40648 4.02762 3.43317C4.09057 3.45985 4.14753 3.49887 4.19515 3.54793L10.0249 9.52955C10.1273 9.63459 10.1846 9.77548 10.1846 9.92217C10.1846 10.0689 10.1273 10.2097 10.0249 10.3148L4.19515 16.2964C4.14746 16.3454 4.09043 16.3843 4.02744 16.4109C3.96445 16.4375 3.89677 16.4512 3.8284 16.4512C3.76003 16.4512 3.69235 16.4375 3.62936 16.4109C3.56637 16.3843 3.50935 16.3454 3.46165 16.2964C3.36353 16.196 3.30859 16.0611 3.30859 15.9207C3.30859 15.7802 3.36353 15.6454 3.46165 15.5449L8.94378 9.92217L3.46165 4.29718C3.36386 4.19677 3.30914 4.06215 3.30914 3.92199C3.30914 3.78183 3.36386 3.64721 3.46165 3.54681Z" fill="white"/>
</svg>
