<svg width="24" height="24" viewBox="0 0 24 24" fill="none" xmlns="http://www.w3.org/2000/svg">
<path d="M6 4.5C5.20435 4.5 4.44129 4.81607 3.87868 5.37868C3.31607 5.94129 3 6.70435 3 7.5V7.8015L12 12.648L21 7.803V7.5C21 6.70435 20.6839 5.94129 20.1213 5.37868C19.5587 4.81607 18.7956 4.5 18 4.5H6Z" fill="white"/>
<path d="M21 9.50586L12.3555 14.1604C12.2462 14.2192 12.1241 14.25 12 14.25C11.8759 14.25 11.7538 14.2192 11.6445 14.1604L3 9.50586V16.5004C3 17.296 3.31607 18.0591 3.87868 18.6217C4.44129 19.1843 5.20435 19.5004 6 19.5004H18C18.7956 19.5004 19.5587 19.1843 20.1213 18.6217C20.6839 18.0591 21 17.296 21 16.5004V9.50586Z" fill="white"/>
</svg>
