<svg width="24" height="24" viewBox="0 0 24 24" fill="none" xmlns="http://www.w3.org/2000/svg">
<path d="M14.5832 3.08785C14.2467 2.74351 13.8448 2.4699 13.4011 2.28309C12.9574 2.09629 12.4808 2.00006 11.9994 2.00006C11.5179 2.00006 11.0414 2.09629 10.5976 2.28309C10.1539 2.4699 9.752 2.74351 9.41553 3.08785L8.638 3.88538L7.52545 3.87163C7.04387 3.86593 6.56601 3.95658 6.11998 4.13825C5.67394 4.31992 5.26873 4.58894 4.92818 4.92949C4.58763 5.27004 4.31861 5.67525 4.13694 6.12129C3.95527 6.56733 3.86462 7.04519 3.87032 7.52677L3.88282 8.63931L3.08779 9.41684C2.74345 9.75331 2.46984 10.1552 2.28303 10.5989C2.09623 11.0427 2 11.5192 2 12.0007C2 12.4821 2.09623 12.9587 2.28303 13.4024C2.46984 13.8462 2.74345 14.2481 3.08779 14.5845L3.88407 15.3621L3.87032 16.4746C3.86462 16.9562 3.95527 17.434 4.13694 17.8801C4.31861 18.3261 4.58763 18.7313 4.92818 19.0719C5.26873 19.4124 5.67394 19.6815 6.11998 19.8631C6.56601 20.0448 7.04387 20.1354 7.52545 20.1297L8.638 20.1172L9.41553 20.9123C9.752 21.2566 10.1539 21.5302 10.5976 21.717C11.0414 21.9038 11.5179 22.0001 11.9994 22.0001C12.4808 22.0001 12.9574 21.9038 13.4011 21.717C13.8448 21.5302 14.2467 21.2566 14.5832 20.9123L15.3608 20.116L16.4733 20.1297C16.9549 20.1354 17.4327 20.0448 17.8788 19.8631C18.3248 19.6815 18.73 19.4124 19.0706 19.0719C19.4111 18.7313 19.6801 18.3261 19.8618 17.8801C20.0435 17.434 20.1341 16.9562 20.1284 16.4746L20.1159 15.3621L20.911 14.5845C21.2553 14.2481 21.5289 13.8462 21.7157 13.4024C21.9025 12.9587 21.9987 12.4821 21.9987 12.0007C21.9987 11.5192 21.9025 11.0427 21.7157 10.5989C21.5289 10.1552 21.2553 9.75331 20.911 9.41684L20.1147 8.63931L20.1284 7.52677C20.1341 7.04519 20.0435 6.56733 19.8618 6.12129C19.6801 5.67525 19.4111 5.27004 19.0706 4.92949C18.73 4.58894 18.3248 4.31992 17.8788 4.13825C17.4327 3.95658 16.9549 3.86593 16.4733 3.87163L15.3608 3.88413L14.5832 3.0891V3.08785ZM14.942 10.5681L11.1918 14.3183C11.1338 14.3765 11.0648 14.4227 10.9889 14.4542C10.9129 14.4857 10.8315 14.5019 10.7493 14.5019C10.6671 14.5019 10.5857 14.4857 10.5098 14.4542C10.4338 14.4227 10.3649 14.3765 10.3068 14.3183L8.43174 12.4432C8.37363 12.3851 8.32753 12.3161 8.29608 12.2402C8.26463 12.1642 8.24844 12.0829 8.24844 12.0007C8.24844 11.9185 8.26463 11.8371 8.29608 11.7612C8.32753 11.6853 8.37363 11.6163 8.43174 11.5582C8.48985 11.5001 8.55884 11.454 8.63477 11.4225C8.71069 11.3911 8.79207 11.3749 8.87426 11.3749C8.95644 11.3749 9.03782 11.3911 9.11374 11.4225C9.18967 11.454 9.25866 11.5001 9.31677 11.5582L10.7493 12.992L14.057 9.6831C14.1743 9.56573 14.3335 9.4998 14.4995 9.4998C14.6654 9.4998 14.8246 9.56573 14.942 9.6831C15.0593 9.80046 15.1253 9.95964 15.1253 10.1256C15.1253 10.2916 15.0593 10.4508 14.942 10.5681Z" fill="#6022EA"/>
</svg>
