<svg width="24" height="22" viewBox="0 0 24 22" fill="none" xmlns="http://www.w3.org/2000/svg">
<g clip-path="url(#clip0_1_359)">
<path d="M11.6827 6.17802L4.00062 12.5051V19.3339C4.00062 19.5107 4.07086 19.6802 4.19589 19.8053C4.32091 19.9303 4.49048 20.0005 4.66729 20.0005L9.33645 19.9884C9.51269 19.9876 9.6814 19.9169 9.80571 19.792C9.93001 19.6671 9.99979 19.498 9.99979 19.3218V15.3339C9.99979 15.157 10.07 14.9875 10.195 14.8625C10.3201 14.7374 10.4896 14.6672 10.6665 14.6672H13.3331C13.5099 14.6672 13.6795 14.7374 13.8045 14.8625C13.9295 14.9875 13.9998 15.157 13.9998 15.3339V19.3189C13.9995 19.4066 14.0166 19.4935 14.0499 19.5746C14.0833 19.6557 14.1324 19.7295 14.1943 19.7916C14.2562 19.8537 14.3298 19.903 14.4108 19.9367C14.4919 19.9703 14.5787 19.9876 14.6665 19.9876L19.334 20.0005C19.5108 20.0005 19.6803 19.9303 19.8054 19.8053C19.9304 19.6802 20.0006 19.5107 20.0006 19.3339V12.5005L12.3202 6.17802C12.2299 6.10524 12.1174 6.06555 12.0015 6.06555C11.8855 6.06555 11.773 6.10524 11.6827 6.17802ZM23.8173 10.4784L20.334 7.60719V1.83594C20.334 1.70333 20.2813 1.57615 20.1875 1.48238C20.0937 1.38862 19.9666 1.33594 19.834 1.33594H17.5006C17.368 1.33594 17.2408 1.38862 17.1471 1.48238C17.0533 1.57615 17.0006 1.70333 17.0006 1.83594V4.86135L13.2702 1.79219C12.9122 1.4976 12.463 1.33653 11.9994 1.33653C11.5358 1.33653 11.0865 1.4976 10.7285 1.79219L0.181458 10.4784C0.130828 10.5203 0.0889391 10.5717 0.0581858 10.6297C0.0274324 10.6878 0.00841698 10.7513 0.0022259 10.8167C-0.00396519 10.8821 0.00278944 10.9481 0.0221038 11.0109C0.0414182 11.0736 0.0729138 11.132 0.114791 11.1826L1.17729 12.4743C1.21905 12.5251 1.27042 12.5671 1.32846 12.598C1.38649 12.6289 1.45005 12.6481 1.5155 12.6544C1.58094 12.6607 1.64699 12.654 1.70986 12.6348C1.77273 12.6155 1.83118 12.5841 1.88187 12.5422L11.6827 4.46969C11.773 4.39691 11.8855 4.35722 12.0015 4.35722C12.1174 4.35722 12.2299 4.39691 12.3202 4.46969L22.1215 12.5422C22.1721 12.5841 22.2304 12.6156 22.2932 12.6349C22.356 12.6542 22.422 12.6609 22.4873 12.6548C22.5527 12.6486 22.6163 12.6295 22.6743 12.5988C22.7324 12.568 22.7838 12.5262 22.8256 12.4755L23.8881 11.1839C23.9299 11.133 23.9613 11.0743 23.9804 11.0112C23.9995 10.9482 24.0059 10.882 23.9993 10.8164C23.9928 10.7509 23.9733 10.6873 23.942 10.6293C23.9108 10.5713 23.8684 10.52 23.8173 10.4784Z" fill="white"/>
</g>
<defs>
<clipPath id="clip0_1_359">
<rect width="24" height="21.3333" fill="white"/>
</clipPath>
</defs>
</svg>
